<?xml version="1.0" encoding="UTF-8"?>
<svg id="Capa_2" data-name="Capa 2" xmlns="http://www.w3.org/2000/svg" viewBox="0 0 239.03 306.55">
  <defs>
    <style>
      .cls-1, .cls-2 {
        stroke-width: 0px;
      }

      .cls-3 {
        fill: none;
        stroke: #000;
        stroke-width: 11px;
      }

      .cls-2 {
        fill: #fff;
      }
    </style>
  </defs>
  <g id="Capa_1-2" data-name="Capa 1">
    <rect class="cls-1" width="239.03" height="306.55"/>
    <path class="cls-2" d="M150.29,121.43v-.7c12.25-2.2,21.94-14.54,21.94-27.75,0-19.03-14.71-31.72-36.47-31.72h-59.36c-8.42,0-15.42,6.03-16.93,14.01h72.68c14.81,0,23.34,6.44,23.99,18.12.04.47.06.95.06,1.44,0,13.74-10.22,21.23-28.99,21.23h-41.46c-3.77,0-6.83,3.06-6.83,6.83h0c0,3.77,3.06,6.83,6.83,6.83h17.68s17.39,0,17.39,0h10.89c20.26,0,30.66,7.49,30.66,22.2s-10.04,22.47-29.16,22.47H59.24c0,7.74,6.27,14.01,14.01,14.01h62.33c27.05,0,43.08-13.3,43.08-35.68,0-16.92-11.1-29.07-28.37-31.28Z"/>
    <g>
      <g>
        <rect class="cls-2" x="87.56" y="179.62" width="15.86" height="43.89"/>
        <path class="cls-2" d="M103.42,228.91v17.51c0,8.75-7.09,15.84-15.84,15.84h-.02v-33.35h15.86Z"/>
      </g>
      <rect class="cls-2" x="87.56" y="125.15" width="15.86" height="43.89"/>
      <g>
        <path class="cls-2" d="M87.33,110.65V44.28h.02c8.75,0,15.84,7.09,15.84,15.84v50.53h-15.86Z"/>
        <rect class="cls-2" x="87.33" y="116.05" width="15.86" height="10.87"/>
      </g>
    </g>
    <path class="cls-3" d="M190.11,179.58c0-40-22.29-63.52-60-63.52"/>
    <path class="cls-3" d="M103.25,130.33h25.81c28.9,0,44.84,17.62,44.84,49.42s-16.03,49.16-44.84,49.16"/>
    <path class="cls-2" d="M130.12,116.05H63.19c-7.88,0-14.27,6.39-14.27,14.27h10.91s43.42,0,43.42,0h25.81c28.9,0,44.84,17.62,44.84,49.42s-16.03,49.16-44.84,49.16H48.92c0,7.88,6.39,14.27,14.27,14.27h66.93c37.8,0,60-23.52,60-63.61s-22.29-63.52-60-63.52Z"/>
  </g>
</svg>